<svg width="1024" height="1024" viewBox="0 0 1024 1024" fill="none" xmlns="http://www.w3.org/2000/svg">
<rect width="1024" height="1024" fill="#F8F8FA"/>
<path d="M206.023 461.453C199.93 469.703 196.883 480.906 196.883 495.062C196.883 511.562 192.43 521.57 183.523 525.086C192.43 528.602 196.883 538.609 196.883 555.109C196.883 569.266 199.93 580.469 206.023 588.719H198.641C192.547 580.469 189.5 569.266 189.5 555.109C189.5 537.203 184.578 528.25 174.734 528.25V521.922C184.578 521.922 189.5 512.969 189.5 495.062C189.5 480.906 192.547 469.703 198.641 461.453H206.023ZM308.469 496.469C301.672 495.344 294.992 494.781 288.43 494.781C268.508 494.781 258.547 504.695 258.547 524.523C258.547 544.82 267.852 554.969 286.461 554.969C293.211 554.969 300.547 553.703 308.469 551.172V496.469ZM315.852 562C315.852 579.812 305 588.719 283.297 588.719C274.203 588.719 266.141 587.547 259.109 585.203V578.875C266.281 581.219 274.391 582.391 283.438 582.391C300.125 582.391 308.469 575.594 308.469 562V558.484C300.125 560.828 292.766 562 286.391 562C263.047 562 251.375 549.555 251.375 524.664C251.375 500.336 263.914 488.172 288.992 488.172C298.508 488.172 307.461 489.18 315.852 491.195V562ZM347.914 461.453V469.891H339.125V461.453H347.914ZM347.211 488.172V562H339.828V488.172H347.211ZM378.57 553.352C386.117 554.711 392.938 555.391 399.031 555.391C418.25 555.391 427.859 544.633 427.859 523.117C427.859 504.508 419.023 495.203 401.352 495.203C394.602 495.203 387.008 496.469 378.57 499V553.352ZM371.188 461.453H378.57V491.688C387.43 489.344 395.047 488.172 401.422 488.172C423.828 488.172 435.031 499.984 435.031 523.609C435.031 549.203 423.242 562 399.664 562C389.07 562 379.578 560.992 371.188 558.977V461.453ZM449.797 541.117C449.797 526.445 459.547 519.109 479.047 519.109C485.938 519.109 493.297 519.578 501.125 520.516V511.445C501.125 500.148 494.023 494.5 479.82 494.5C472.227 494.5 464.445 495.672 456.477 498.016V491.688C464.445 489.344 472.227 488.172 479.82 488.172C498.945 488.172 508.508 495.812 508.508 511.094V562H504.008L502.32 554.688C493.086 559.562 484.133 562 475.461 562C458.352 562 449.797 555.039 449.797 541.117ZM479.047 525.438C464.469 525.438 457.18 530.594 457.18 540.906C457.18 550.75 463.273 555.672 475.461 555.672C484.461 555.672 493.016 553.281 501.125 548.5V526.844C493.297 525.906 485.938 525.438 479.047 525.438Z" fill="#5273FF"/>
<path d="M537.055 553.211V562H527.562V553.211H537.055Z" fill="#1F045A"/>
<path d="M609.898 499C602.773 496.469 595.367 495.203 587.68 495.203C569.539 495.203 560.469 504.508 560.469 523.117C560.469 544.633 569.539 555.391 587.68 555.391C595.367 555.391 602.773 554.477 609.898 552.648V499ZM617.281 557.57C609.266 560.523 599.164 562 586.977 562C564.055 562 552.594 549.203 552.594 523.609C552.594 499.984 564.266 488.172 587.609 488.172C594.922 488.172 602.352 489.344 609.898 491.688V461.453H617.281V557.57ZM669.523 488.172C689.727 488.172 699.828 499.352 699.828 521.711C699.828 523.305 699.781 524.969 699.688 526.703H643.648C643.648 546.016 653.867 555.672 674.305 555.672C682.695 555.672 690.148 554.5 696.664 552.156V558.484C690.148 560.828 682.695 562 674.305 562C648.945 562 636.266 549.414 636.266 524.242C636.266 500.195 647.352 488.172 669.523 488.172ZM643.648 520.094H692.727C692.445 502.938 684.711 494.359 669.523 494.359C653.117 494.359 644.492 502.938 643.648 520.094ZM708.266 488.172H716.703L743.703 555.602L770.844 488.172H779.281L747.852 562H739.273L708.266 488.172ZM824.984 461.453C831.078 469.703 834.125 480.906 834.125 495.062C834.125 512.969 839.047 521.922 848.891 521.922V528.25C839.047 528.25 834.125 537.203 834.125 555.109C834.125 569.266 831.078 580.469 824.984 588.719H817.602C823.695 580.469 826.742 569.266 826.742 555.109C826.742 538.609 831.195 528.602 840.102 525.086C831.195 521.57 826.742 511.562 826.742 495.062C826.742 480.906 823.695 469.703 817.602 461.453H824.984Z" fill="#191A1F"/>
</svg>
